<?xml version="1.0" standalone="no"?><!DOCTYPE svg PUBLIC "-//W3C//DTD SVG 1.1//EN" "http://www.w3.org/Graphics/SVG/1.1/DTD/svg11.dtd"><svg t="1706113415080" class="icon" viewBox="0 0 1536 1024" version="1.1" xmlns="http://www.w3.org/2000/svg" p-id="3380" xmlns:xlink="http://www.w3.org/1999/xlink" width="300" height="200"><path d="M1488.760564 941.409584s-51.192406 105.115075-357.408318 78.153741c-409.539252-49.656634-1127.25679-503.391997-1127.25679-503.391997L6.313793 430.168085s97.948138 38.308984 153.57722 63.819867 48.803427-16.552211 48.803427-16.552212V310.719137a24.145752 24.145752 0 0 0-21.074207-29.350313L0.426667 269.850532v-57.079533s217.226445-4.607317 349.814777-15.272401a206.134757 206.134757 0 0 1 194.019221 72.351934s340.770786 345.548744 445.459257 447.677595a222.431006 222.431006 0 0 0 213.301693 67.659297 524.978128 524.978128 0 0 0 280.87567-114.159067c115.182915 196.49352 4.863279 270.381227 4.863279 270.381227zM283.350033 354.232682a34.128271 34.128271 0 0 1 25.1696 36.51725l29.520954 5.972448a65.867563 65.867563 0 0 0-54.690554-68.256542c-34.640195-5.204561-52.557537 20.13568-54.007989 76.106044a83.955547 83.955547 0 0 0 54.007989 95.217876 40.697963 40.697963 0 0 0 54.690554-44.537394l-29.520954-5.972447c0 20.221001-8.532068 29.00903-25.1696 26.278768a62.625377 62.625377 0 0 1-24.572355-65.099676q1.450452-59.127229 24.572355-56.226327zM452.626257 409.691122a50.595162 50.595162 0 0 0-44.878676-52.216254l-55.37312-11.177009V512.075935l28.070503 5.631165v-66.379487l29.435634 5.972447a22.268697 22.268697 0 0 1 11.859574 23.975111 299.902181 299.902181 0 0 0 4.948599 45.817204l30.118199 6.143088a137.28097 137.28097 0 0 1-6.996295-40.868604 69.962955 69.962955 0 0 0-23.804469-47.011693V443.819393a30.118199 30.118199 0 0 0 26.620051-34.128271z m125.421396-17.66138l-28.070503-5.716485v65.52628l-49.05939-9.982519V376.416058l-27.302616-5.545844V536.818932l27.302616 5.545844V469.415597l49.827276 10.06784v72.693217l27.302617 5.545844V391.77378z m-174.480785 36.346609l-23.121904-4.692637v-43.940149l23.121904 4.692637a21.842093 21.842093 0 0 1 19.623755 24.657676c0.341283 15.10176-6.228409 21.586131-19.282473 18.855869z m908.067969 297.086599a377.543998 377.543998 0 0 1-223.369533 16.552211 152.126768 152.126768 0 0 1-46.243807-30.032878c-24.913638-22.524659-488.204916-484.450806-488.204917-484.450807a201.698081 201.698081 0 0 0-137.878214-60.918964c-91.89037-5.631165-415.938302 10.921047-415.938303 10.921047l73.375783-52.557537S556.632163 21.738002 593.320054 21.738002a110.916881 110.916881 0 0 0 27.131976 140.779118s194.701786 213.301694 348.449646 256.559277 263.555573 18.770549 269.357379-93.852745a1219.488443 1219.488443 0 0 1 221.833761 300.499426s-1.962376 54.263951-148.116696 99.654551z m-109.210467-119.448949l-200.588912 8.958671 89.927994 85.320678a560.727492 560.727492 0 0 0 188.558697-15.784326z m206.220078-10.15316a321.14703 321.14703 0 0 0-49.827276-69.877635l-27.72922 27.046655a38.138343 38.138343 0 0 0 0 42.660338 462.096789 462.096789 0 0 0 30.630123 41.636491c15.357722 18.087984 23.88979 14.675157 39.247512 0a37.967701 37.967701 0 0 0 8.020143-41.807132z m-263.299611-203.916419a398.276922 398.276922 0 0 1-196.237558-22.60998 1379.891316 1379.891316 0 0 1-304.424177-228.659415 60.918964 60.918964 0 0 1 14.333874-109.295788 437.09783 437.09783 0 0 1 260.398707-20.306321 490.508575 490.508575 0 0 1 260.313387 237.703407c65.52628 122.520493-30.20352 141.632325-34.04295 142.826814z" fill="#0170fe" p-id="3381"></path></svg>